<?xml version="1.0" standalone="no"?>
<!DOCTYPE svg PUBLIC "-//W3C//DTD SVG 20010904//EN"
 "http://www.w3.org/TR/2001/REC-SVG-20010904/DTD/svg10.dtd">
<svg version="1.0" xmlns="http://www.w3.org/2000/svg"
 width="502.000000pt" height="250pt" viewBox="0 0 502.000000 497.000000"
 preserveAspectRatio="xMidYMid meet">

<g transform="translate(0.000000,497.000000) scale(0.100000,-0.100000)"
fill="#3f3" stroke="none">
<path d="M2490 4770 c-92 -13 -160 -50 -253 -139 -132 -125 -177 -255 -175
-496 1 -77 3 -108 5 -70 7 174 52 344 112 425 38 52 92 99 108 93 7 -3 13 0
13 7 0 7 11 10 28 9 15 -2 33 0 40 5 19 11 45 -13 32 -29 -16 -19 28 -59 47
-44 7 6 13 18 13 25 0 8 4 14 10 14 5 0 7 -7 4 -15 -7 -17 11 -21 21 -5 3 6
11 10 18 10 8 0 8 -3 -1 -12 -20 -20 -13 -30 10 -14 28 20 57 20 64 2 4 -11
19 -13 62 -9 116 10 111 12 172 -64 6 -8 6 -14 -1 -19 -8 -4 -7 -9 2 -15 10
-6 11 -9 2 -9 -9 0 -13 -21 -13 -69 0 -61 4 -76 31 -120 18 -28 36 -51 40 -51
5 0 8 -11 7 -25 -2 -20 -11 -28 -48 -39 -56 -18 -234 -35 -445 -42 -127 -4
-163 -8 -175 -21 -13 -14 -12 -14 10 -8 27 9 30 9 77 7 23 -2 31 -6 27 -16 -4
-9 6 -18 28 -25 58 -18 118 -29 118 -21 0 5 8 7 18 6 25 -4 30 -75 6 -93 -14
-10 -15 -15 -4 -28 11 -13 7 -24 -24 -70 -44 -63 -71 -75 -171 -75 -67 0 -73
2 -102 33 -35 37 -53 69 -64 112 -6 27 -7 28 -8 5 -1 -32 52 -125 84 -146 19
-12 44 -15 114 -13 87 4 91 5 126 39 52 50 75 105 75 178 0 48 3 62 15 62 8 0
15 7 15 15 0 11 11 15 38 15 l38 0 2 -151 c1 -83 5 -155 8 -160 11 -18 -20
-80 -43 -85 -44 -12 -45 -28 -1 -62 23 -18 50 -32 60 -32 23 0 24 -26 1 -35
-10 -3 -65 -9 -123 -12 -57 -3 -115 -9 -127 -14 -13 -5 -30 -6 -38 -3 -20 8
-45 -13 -38 -32 3 -9 13 -12 24 -9 11 4 44 -3 74 -14 64 -24 74 -26 57 -9 -23
23 -12 37 41 46 82 15 141 11 145 -11 2 -10 -5 -25 -15 -33 -16 -14 -14 -15
24 -10 23 3 50 9 60 12 10 3 -9 -21 -42 -54 -48 -48 -69 -61 -103 -67 -38 -6
-41 -8 -25 -19 10 -7 50 -11 93 -11 65 1 81 5 120 30 25 16 47 29 50 28 3 -1
4 14 2 32 -3 26 4 45 27 80 17 25 31 55 31 65 0 10 7 23 16 28 13 7 10 15 -22
53 -20 24 -51 66 -69 94 -17 27 -39 56 -49 64 -9 8 -22 24 -28 35 -11 20 -11
20 17 2 15 -10 62 -22 104 -28 102 -12 108 -20 88 -99 -11 -42 -13 -69 -6 -86
12 -33 11 -83 -3 -124 -16 -49 -58 -101 -75 -94 -9 3 -13 0 -10 -7 2 -7 -18
-45 -44 -84 -48 -72 -124 -131 -160 -126 -8 2 -28 -4 -43 -12 -16 -8 -35 -12
-42 -9 -8 3 -14 0 -14 -6 0 -12 -54 -8 -90 6 -8 3 -21 7 -29 9 -8 1 -27 12
-43 24 -15 11 -36 20 -46 18 -11 -2 -16 3 -14 15 2 9 -1 17 -7 17 -16 0 -7
-24 32 -83 21 -31 51 -63 66 -71 15 -8 33 -22 40 -30 7 -9 17 -14 21 -11 4 2
15 -4 25 -15 10 -11 22 -17 28 -13 6 4 8 0 5 -9 -6 -14 2 -18 45 -19 9 0 15
-4 12 -10 -4 -5 0 -9 7 -9 9 0 9 -3 2 -8 -6 -4 -13 -15 -17 -24 -4 -12 -12
-15 -23 -11 -12 4 -15 3 -10 -5 4 -7 14 -12 23 -12 9 0 13 -6 10 -14 -3 -8 -1
-17 6 -20 7 -2 -5 -5 -26 -5 -60 -1 -97 21 -185 110 -108 110 -131 145 -139
207 -3 28 -10 49 -15 46 -4 -3 -19 -27 -33 -53 -25 -50 -52 -67 -181 -111 -28
-10 -104 -40 -170 -68 -65 -28 -210 -82 -321 -120 -236 -82 -322 -125 -391
-194 -52 -52 -104 -147 -137 -248 -9 -30 -32 -87 -50 -125 -27 -56 -105 -309
-119 -385 -1 -8 -11 -33 -20 -55 -10 -22 -36 -109 -57 -194 -22 -85 -44 -162
-48 -170 -14 -28 -30 -103 -41 -201 -7 -52 -23 -129 -36 -170 -14 -41 -27 -95
-31 -120 -3 -25 -14 -74 -24 -109 -23 -78 -24 -111 -2 -149 16 -28 16 -33 -2
-86 -16 -47 -17 -58 -6 -65 11 -7 9 -11 -8 -21 -32 -17 -61 -70 -61 -110 1
-19 7 -64 15 -100 9 -36 24 -121 35 -190 11 -68 24 -128 28 -132 5 -5 908 -7
2008 -6 l1999 3 30 55 c28 53 29 62 33 205 9 337 6 522 -11 680 -26 240 -45
352 -77 464 -16 55 -31 127 -35 158 -3 32 -12 87 -20 123 -8 36 -29 139 -46
230 -34 176 -138 513 -187 605 -39 72 -94 106 -372 230 -58 26 -195 92 -305
148 -110 55 -254 121 -320 147 l-120 46 -17 47 c-10 26 -26 59 -35 74 l-18 27
-6 -29 c-6 -27 -7 -25 -10 15 -5 82 -4 95 4 125 4 17 8 47 8 68 0 20 3 37 7
37 4 0 8 12 8 28 1 15 3 32 4 37 1 6 2 29 1 53 -1 30 -5 41 -12 36 -9 -5 -10
1 -5 22 3 16 9 67 12 114 4 47 11 90 16 97 5 6 6 38 2 72 -4 42 -3 61 5 61 6
0 13 -12 17 -27 3 -16 10 -39 16 -53 14 -31 10 -153 -5 -162 -6 -4 -14 -5 -18
-2 -4 2 -7 -14 -7 -36 0 -22 -4 -44 -7 -50 -3 -5 1 -10 10 -10 14 0 16 -6 11
-27 -8 -29 5 -43 40 -43 30 0 46 23 46 64 0 19 7 43 15 53 13 17 13 16 4 -4
-7 -13 -7 -24 -2 -28 12 -7 18 14 36 121 27 162 18 206 -45 237 -23 12 -25 19
-32 112 -16 221 -41 307 -116 400 -64 80 -147 145 -246 193 -121 60 -202 72
-346 52z m627 -703 c3 -22 2 -37 -5 -37 -11 0 -22 33 -22 70 0 36 19 11 27
-33z m-445 6 c-6 -2 -10 -8 -7 -13 3 -4 -24 -11 -60 -15 -52 -5 -68 -3 -80 9
-14 14 -8 15 62 19 43 1 83 4 88 4 6 1 4 -1 -3 -4z m368 -38 c0 -5 -5 -3 -10
5 -5 8 -10 20 -10 25 0 6 5 3 10 -5 5 -8 10 -19 10 -25z m-310 12 c0 -8 -11
-19 -25 -25 -20 -9 -25 -9 -25 3 0 8 8 19 18 24 23 14 32 13 32 -2z m135 -37
c4 -6 -7 -10 -27 -9 -27 0 -30 2 -13 9 27 12 33 12 40 0z m-45 -75 c0 -7 14
-16 30 -20 17 -4 28 -11 24 -16 -6 -11 -78 -12 -114 -2 l-25 7 25 6 c14 4 24
13 22 20 -3 15 18 31 30 24 4 -3 8 -11 8 -19z m128 -97 c6 -6 12 -17 12 -25 0
-20 27 -27 48 -12 16 12 16 12 0 -5 -21 -23 -182 -35 -217 -17 -29 16 -24 51
9 68 27 14 127 7 148 -9z m-214 -117 c3 -5 -1 -11 -9 -15 -15 -6 -29 7 -18 18
9 9 21 8 27 -3z m426 -1 c0 -5 -4 -10 -10 -10 -5 0 -10 5 -10 10 0 6 5 10 10
10 6 0 10 -4 10 -10z m-450 -270 c0 -5 -2 -10 -4 -10 -3 0 -8 5 -11 10 -3 6
-1 10 4 10 6 0 11 -4 11 -10z m-10 -804 c0 -2 -8 -10 -17 -17 -16 -13 -17 -12
-4 4 13 16 21 21 21 13z m-43 -32 c-3 -3 -12 -4 -19 -1 -8 3 -5 6 6 6 11 1 17
-2 13 -5z m-327 -419 c15 -18 7 -43 -16 -52 -24 -9 -46 24 -33 48 12 23 32 24
49 4z m-80 -545 c-6 -11 -12 -20 -14 -20 -3 0 -1 23 3 38 1 1 6 2 11 2 7 0 7
-6 0 -20z m-20 -50 c-6 -11 -12 -20 -14 -20 -2 0 -2 9 1 20 3 11 9 20 15 20 5
0 4 -9 -2 -20z m-10 -54 c0 -3 -4 -8 -10 -11 -5 -3 -10 -1 -10 4 0 6 5 11 10
11 6 0 10 -2 10 -4z m-24 -61 c-1 -8 -5 -17 -8 -21 -5 -4 -4 16 1 34 3 9 9 -1
7 -13z"/>
<path d="M2373 4579 c-2 -17 1 -18 12 -9 8 7 12 16 9 21 -9 16 -20 10 -21 -12z"/>
<path d="M2370 3973 c-84 -14 -161 -57 -146 -81 9 -15 95 8 89 24 -9 24 14 15
31 -11 9 -14 26 -25 39 -25 21 -1 22 -1 3 -15 -19 -15 -19 -15 1 -15 40 0 70
18 83 49 7 17 16 31 21 31 18 0 8 16 -22 33 -30 17 -48 19 -99 10z"/>
<path d="M2054 3959 c-3 -5 7 -14 21 -19 34 -13 35 -13 29 4 -7 17 -42 28 -50
15z"/>
<path d="M2122 3945 c0 -16 2 -22 5 -12 2 9 2 23 0 30 -3 6 -5 -1 -5 -18z"/>
<path d="M2026 3903 c-11 -11 -6 -23 9 -23 8 0 15 4 15 9 0 13 -16 22 -24 14z"/>
<path d="M2450 3651 c0 -11 63 -41 87 -41 14 0 12 5 -12 25 -29 24 -75 34 -75
16z"/>
<path d="M2328 3568 c-18 -36 -32 -75 -24 -67 14 13 56 81 56 89 0 20 -16 9
-32 -22z"/>
</g>
</svg>
